<mxfile host="65bd71144e">
    <diagram id="aHGAsa2Ocz5gcgqU7ATd" name="Page-1">
        <mxGraphModel dx="870" dy="1089" grid="1" gridSize="10" guides="1" tooltips="1" connect="1" arrows="1" fold="1" page="1" pageScale="1" pageWidth="827" pageHeight="1169" math="0" shadow="0">
            <root>
                <mxCell id="0"/>
                <mxCell id="1" parent="0"/>
                <mxCell id="2" value="" style="edgeStyle=none;html=1;strokeWidth=3;" parent="1" source="3" target="5" edge="1">
                    <mxGeometry relative="1" as="geometry"/>
                </mxCell>
                <mxCell id="3" value="selectShoe&lt;br&gt;(i, shoeSize[], shoePrice[])" style="strokeWidth=3;html=1;shape=mxgraph.flowchart.terminator;whiteSpace=wrap;fillColor=#d80073;strokeColor=#A50040;shadow=1;fontColor=#ffffff;" parent="1" vertex="1">
                    <mxGeometry x="199.57999999999998" y="20" width="183.33" height="110" as="geometry"/>
                </mxCell>
                <mxCell id="4" value="" style="edgeStyle=none;html=1;strokeWidth=3;" parent="1" source="5" target="7" edge="1">
                    <mxGeometry relative="1" as="geometry"/>
                </mxCell>
                <mxCell id="5" value="&lt;span style=&quot;color: rgb(255, 255, 255);&quot;&gt;Prompt:&lt;/span&gt;&lt;br&gt;&lt;span style=&quot;color: rgb(255, 255, 255);&quot;&gt;&quot;Please choose your shoe size (20 - 35): &quot;&lt;/span&gt;" style="shape=parallelogram;perimeter=parallelogramPerimeter;whiteSpace=wrap;html=1;fixedSize=1;fillColor=#008a00;strokeColor=#005700;fontColor=#ffffff;strokeWidth=3;shadow=1;" parent="1" vertex="1">
                    <mxGeometry x="160.01" y="180" width="262.5" height="60" as="geometry"/>
                </mxCell>
                <mxCell id="7" value="Input:&lt;br&gt;shoeSize[i]" style="shape=parallelogram;perimeter=parallelogramPerimeter;whiteSpace=wrap;html=1;fixedSize=1;fillColor=#e3c800;strokeColor=#B09500;fontColor=#FFFFFF;strokeWidth=3;shadow=1;labelBackgroundColor=none;labelBorderColor=none;textShadow=0;" parent="1" vertex="1">
                    <mxGeometry x="231.245" y="290" width="120" height="60" as="geometry"/>
                </mxCell>
                <mxCell id="8" value="" style="edgeStyle=none;html=1;strokeWidth=3;" parent="1" target="10" edge="1">
                    <mxGeometry relative="1" as="geometry">
                        <mxPoint x="291.0728571428572" y="350" as="sourcePoint"/>
                    </mxGeometry>
                </mxCell>
                <mxCell id="10" value="&lt;span style=&quot;color: rgb(255, 255, 255);&quot;&gt;cin.fail() ||&lt;/span&gt;&lt;br&gt;&lt;span style=&quot;color: rgb(255, 255, 255);&quot;&gt;(shoeSize[i] &amp;lt; 20 || shoeSize[i] &amp;gt; 35)&lt;/span&gt;" style="rhombus;whiteSpace=wrap;html=1;fillColor=#6a00ff;strokeColor=#3700CC;fontColor=#ffffff;strokeWidth=3;shadow=1;labelBackgroundColor=none;labelBorderColor=none;" parent="1" vertex="1">
                    <mxGeometry x="160.01" y="400" width="260" height="260" as="geometry"/>
                </mxCell>
                <mxCell id="12" value="&lt;span style=&quot;color: rgb(255, 255, 255);&quot;&gt;Prompt:&lt;/span&gt;&lt;br&gt;&lt;span style=&quot;color: rgb(255, 255, 255);&quot;&gt;&quot;Please choose a valid shoe size (20 - 35): &quot;&lt;/span&gt;" style="shape=parallelogram;perimeter=parallelogramPerimeter;whiteSpace=wrap;html=1;fixedSize=1;fillColor=#008a00;strokeColor=#005700;fontColor=#ffffff;strokeWidth=3;shadow=1;" parent="1" vertex="1">
                    <mxGeometry x="469.58" y="500" width="288.33" height="60" as="geometry"/>
                </mxCell>
                <mxCell id="13" value="" style="edgeStyle=none;html=1;strokeWidth=3;" parent="1" edge="1">
                    <mxGeometry relative="1" as="geometry">
                        <mxPoint x="613.61" y="560" as="sourcePoint"/>
                        <mxPoint x="613.400625" y="610" as="targetPoint"/>
                    </mxGeometry>
                </mxCell>
                <mxCell id="14" value="Input:&lt;br&gt;shoeSize[i]" style="shape=parallelogram;perimeter=parallelogramPerimeter;whiteSpace=wrap;html=1;fixedSize=1;fillColor=#e3c800;strokeColor=#B09500;fontColor=#FFFFFF;strokeWidth=3;shadow=1;labelBackgroundColor=none;labelBorderColor=none;textShadow=0;" parent="1" vertex="1">
                    <mxGeometry x="553.745" y="610" width="120" height="60" as="geometry"/>
                </mxCell>
                <mxCell id="18" value="shoeSize[i] &amp;lt;= 25" style="rhombus;whiteSpace=wrap;html=1;fillColor=#1ba1e2;fontColor=#ffffff;strokeColor=#006EAF;strokeWidth=3;" parent="1" vertex="1">
                    <mxGeometry x="224.8" y="740" width="130.43" height="130.43" as="geometry"/>
                </mxCell>
                <mxCell id="19" value="" style="edgeStyle=none;html=1;strokeWidth=3;shadow=1;entryX=1;entryY=1;entryDx=0;entryDy=0;rounded=0;curved=0;exitX=0;exitY=0.5;exitDx=0;exitDy=0;" parent="1" target="10" edge="1" source="14">
                    <mxGeometry relative="1" as="geometry">
                        <mxPoint x="382.91" y="749.76" as="sourcePoint"/>
                        <mxPoint x="290" y="750.09" as="targetPoint"/>
                        <Array as="points">
                            <mxPoint x="354.58" y="640"/>
                        </Array>
                    </mxGeometry>
                </mxCell>
                <mxCell id="20" value="shoePrice[i] = 3" style="whiteSpace=wrap;html=1;fillColor=#fa6800;strokeColor=#C73500;fontColor=#FFFFFF;strokeWidth=3;" parent="1" vertex="1">
                    <mxGeometry x="416.24999999999994" y="775.21" width="120" height="60" as="geometry"/>
                </mxCell>
                <mxCell id="23" value="" style="edgeStyle=none;html=1;strokeWidth=3;exitX=0.5;exitY=1;exitDx=0;exitDy=0;rounded=0;curved=0;" parent="1" source="20" edge="1">
                    <mxGeometry relative="1" as="geometry">
                        <mxPoint x="476.37999999999994" y="950" as="sourcePoint"/>
                        <mxPoint x="289.58" y="1000" as="targetPoint"/>
                        <Array as="points">
                            <mxPoint x="476.58" y="1000"/>
                        </Array>
                    </mxGeometry>
                </mxCell>
                <mxCell id="39" value="return shoePrice[i]" style="strokeWidth=3;html=1;shape=mxgraph.flowchart.terminator;whiteSpace=wrap;fillColor=#d80073;strokeColor=#A50040;shadow=1;fontColor=#ffffff;" parent="1" vertex="1">
                    <mxGeometry x="198.35" y="1030" width="183.33" height="110" as="geometry"/>
                </mxCell>
                <mxCell id="42" value="shoePrice[i] = 3" style="whiteSpace=wrap;html=1;fillColor=#fa6800;strokeColor=#C73500;fontColor=#FFFFFF;strokeWidth=3;" parent="1" vertex="1">
                    <mxGeometry x="230.00999999999993" y="920" width="120" height="60" as="geometry"/>
                </mxCell>
                <mxCell id="44" value="" style="edgeStyle=none;html=1;strokeWidth=3;entryX=0.5;entryY=0;entryDx=0;entryDy=0;" parent="1" edge="1">
                    <mxGeometry relative="1" as="geometry">
                        <mxPoint x="290.13" y="979.9999999999998" as="sourcePoint"/>
                        <mxPoint x="289.83" y="1029.57" as="targetPoint"/>
                    </mxGeometry>
                </mxCell>
                <mxCell id="46" value="F" style="endArrow=classic;html=1;exitX=0.5;exitY=1;exitDx=0;exitDy=0;entryX=0.5;entryY=0;entryDx=0;entryDy=0;strokeWidth=3;" parent="1" source="10" target="18" edge="1">
                    <mxGeometry relative="1" as="geometry">
                        <mxPoint x="255.23000000000002" y="690" as="sourcePoint"/>
                        <mxPoint x="289.58" y="810" as="targetPoint"/>
                    </mxGeometry>
                </mxCell>
                <mxCell id="47" value="False" style="edgeLabel;resizable=0;html=1;;align=center;verticalAlign=middle;" parent="46" connectable="0" vertex="1">
                    <mxGeometry relative="1" as="geometry"/>
                </mxCell>
                <mxCell id="48" value="" style="endArrow=classic;html=1;exitX=1;exitY=0.5;exitDx=0;exitDy=0;entryX=0;entryY=0.5;entryDx=0;entryDy=0;strokeWidth=3;" parent="1" source="10" target="12" edge="1">
                    <mxGeometry relative="1" as="geometry">
                        <mxPoint x="416.25" y="590" as="sourcePoint"/>
                        <mxPoint x="516.25" y="590" as="targetPoint"/>
                    </mxGeometry>
                </mxCell>
                <mxCell id="49" value="True" style="edgeLabel;resizable=0;html=1;;align=center;verticalAlign=middle;" parent="48" connectable="0" vertex="1">
                    <mxGeometry relative="1" as="geometry"/>
                </mxCell>
                <mxCell id="50" value="" style="endArrow=classic;html=1;exitX=1;exitY=0.5;exitDx=0;exitDy=0;entryX=0;entryY=0.5;entryDx=0;entryDy=0;strokeWidth=3;" edge="1" parent="1" target="20">
                    <mxGeometry relative="1" as="geometry">
                        <mxPoint x="355.23" y="804.9300000000001" as="sourcePoint"/>
                        <mxPoint x="415.23" y="804.9300000000001" as="targetPoint"/>
                    </mxGeometry>
                </mxCell>
                <mxCell id="51" value="True" style="edgeLabel;resizable=0;html=1;;align=center;verticalAlign=middle;" connectable="0" vertex="1" parent="50">
                    <mxGeometry relative="1" as="geometry">
                        <mxPoint x="-4" as="offset"/>
                    </mxGeometry>
                </mxCell>
                <mxCell id="52" value="F" style="endArrow=classic;html=1;exitX=0.5;exitY=1;exitDx=0;exitDy=0;entryX=0.5;entryY=0;entryDx=0;entryDy=0;strokeWidth=3;" edge="1" parent="1" source="18" target="42">
                    <mxGeometry relative="1" as="geometry">
                        <mxPoint x="355.23" y="835.21" as="sourcePoint"/>
                        <mxPoint x="355.23" y="915.21" as="targetPoint"/>
                    </mxGeometry>
                </mxCell>
                <mxCell id="53" value="False" style="edgeLabel;resizable=0;html=1;;align=center;verticalAlign=middle;" connectable="0" vertex="1" parent="52">
                    <mxGeometry relative="1" as="geometry">
                        <mxPoint y="-5" as="offset"/>
                    </mxGeometry>
                </mxCell>
            </root>
        </mxGraphModel>
    </diagram>
</mxfile>